<svg width="21" height="21" viewBox="0 0 21 21" fill="none" xmlns="http://www.w3.org/2000/svg">
<path d="M10.5 18.5186C8.37334 18.5186 6.33374 17.6737 4.82994 16.1699C3.32613 14.6661 2.4813 12.6265 2.4813 10.4998C2.4813 8.3731 3.32613 6.3335 4.82994 4.82969C6.33374 3.32588 8.37334 2.48105 10.5 2.48105C12.6268 2.48105 14.6664 3.32588 16.1702 4.82969C17.674 6.3335 18.5188 8.3731 18.5188 10.4998C18.5188 12.6265 17.674 14.6661 16.1702 16.1699C14.6664 17.6737 12.6268 18.5186 10.5 18.5186ZM10.5 20.1998C13.0726 20.1998 15.5399 19.1778 17.359 17.3587C19.1781 15.5396 20.2 13.0724 20.2 10.4998C20.2 7.9272 19.1781 5.45997 17.359 3.64087C15.5399 1.82177 13.0726 0.799805 10.5 0.799805C7.92745 0.799805 5.46022 1.82177 3.64111 3.64087C1.82201 5.45997 0.800049 7.9272 0.800049 10.4998C0.800049 13.0724 1.82201 15.5396 3.64111 17.3587C5.46022 19.1778 7.92745 20.1998 10.5 20.1998Z" fill="#1D1D1D" stroke="#1D1D1D" stroke-width="0.5"/>
<path d="M11.7055 8.87197L11.7857 8.52661L11.4334 8.56706L8.54797 8.89843L8.37342 8.91848L8.33315 9.08949L8.22982 9.52825L8.16874 9.78764L8.43151 9.83205L8.99248 9.92687C9.0731 9.94473 9.12362 9.96196 9.15494 9.97723C9.16937 9.98427 9.1771 9.98961 9.18077 9.99255C9.18148 9.99607 9.18232 10.0023 9.18254 10.0123C9.18317 10.0419 9.17791 10.0893 9.15988 10.1649L9.15987 10.1649L9.15955 10.1663L8.22985 14.1696C8.22982 14.1698 8.22978 14.17 8.22974 14.1701C8.10172 14.7128 8.11821 15.1811 8.35298 15.5194C8.59422 15.8671 9.00968 16 9.49127 16C9.86743 16 10.2679 15.9208 10.6232 15.789C10.975 15.6583 11.3052 15.4675 11.5225 15.2273L11.5662 15.1791L11.5808 15.1158L11.6917 14.6355L11.8544 13.9304L11.2912 14.3846C11.0967 14.5414 10.7906 14.6133 10.5837 14.6133C10.4662 14.6133 10.4462 14.5795 10.4426 14.5734C10.4425 14.5732 10.4424 14.5731 10.4424 14.573C10.4288 14.5506 10.4052 14.4758 10.4443 14.3039C10.4443 14.3037 10.4444 14.3036 10.4444 14.3034L11.7055 8.87197ZM9.18359 9.99511C9.18357 9.99512 9.18338 9.99493 9.18306 9.99453C9.18344 9.99491 9.1836 9.99511 9.18359 9.99511ZM11.35 7.40536C11.6352 7.14397 11.8001 6.78453 11.8001 6.40461C11.8001 6.02468 11.6352 5.66525 11.35 5.40386L11.188 5.58064L11.35 5.40386C11.0655 5.14314 10.6839 5 10.2901 5C9.89635 5 9.51478 5.14314 9.23025 5.40386C8.945 5.66525 8.7801 6.02468 8.7801 6.40461C8.7801 6.78453 8.945 7.14397 9.23025 7.40536C9.51478 7.66608 9.89635 7.80921 10.2901 7.80921C10.6839 7.80921 11.0655 7.66608 11.35 7.40536Z" fill="#1D1D1D" stroke="#1D1D1D" stroke-width="0.5"/>
</svg>
