<svg width="41" height="41" viewBox="0 0 41 41" fill="none" xmlns="http://www.w3.org/2000/svg">
<circle cx="20.5" cy="20.5" r="20.5" fill="#1D1D1D"/>
<g clip-path="url(#clip0_18_440)">
<path d="M24.6763 10.0105C24.6317 9.96063 23.0238 10.0302 21.6247 11.5488C20.2256 13.066 20.4408 14.8064 20.4723 14.851C20.5038 14.8956 22.4673 14.9652 23.7208 13.1999C24.9742 11.4346 24.7209 10.0617 24.6763 10.0105ZM29.0259 25.4101C28.9629 25.2841 25.9743 23.7904 26.2526 20.9187C26.5308 18.0456 28.451 17.2581 28.4812 17.1728C28.5114 17.0875 27.6977 16.1359 26.8353 15.6543C26.2022 15.3147 25.5015 15.1201 24.7839 15.0846C24.6422 15.0807 24.15 14.9599 23.138 15.2369C22.4713 15.4193 20.9685 16.0099 20.555 16.0336C20.1403 16.0572 18.9065 15.3484 17.5796 15.1608C16.7304 14.9967 15.83 15.3327 15.1856 15.5913C14.5425 15.8485 13.3192 16.5809 12.4635 18.5273C11.6077 20.4724 12.0553 23.5542 12.3755 24.5123C12.6958 25.4691 13.1958 27.0376 14.0463 28.1821C14.8023 29.4736 15.8051 30.37 16.2238 30.6745C16.6425 30.979 17.8237 31.1811 18.6427 30.7624C19.3016 30.3582 20.4907 30.1259 20.9606 30.1429C21.4292 30.16 22.3532 30.3451 23.2995 30.8504C24.0489 31.1089 24.7577 31.0013 25.4677 30.7126C26.1778 30.4225 27.2055 29.3226 28.4051 27.0927C28.8605 26.0558 29.0679 25.4954 29.0259 25.4101Z" fill="white"/>
<path d="M24.6763 10.0105C24.6317 9.96063 23.0238 10.0302 21.6247 11.5488C20.2256 13.066 20.4408 14.8064 20.4723 14.851C20.5038 14.8956 22.4673 14.9652 23.7208 13.1999C24.9742 11.4346 24.7209 10.0617 24.6763 10.0105ZM29.0259 25.4101C28.9629 25.2841 25.9743 23.7904 26.2526 20.9187C26.5308 18.0456 28.451 17.2581 28.4812 17.1728C28.5114 17.0875 27.6977 16.1359 26.8353 15.6543C26.2022 15.3147 25.5015 15.1201 24.7839 15.0846C24.6422 15.0807 24.15 14.9599 23.138 15.2369C22.4713 15.4193 20.9685 16.0099 20.555 16.0336C20.1403 16.0572 18.9065 15.3484 17.5796 15.1608C16.7304 14.9967 15.83 15.3327 15.1856 15.5913C14.5425 15.8485 13.3192 16.5809 12.4635 18.5273C11.6077 20.4724 12.0553 23.5542 12.3755 24.5123C12.6958 25.4691 13.1958 27.0376 14.0463 28.1821C14.8023 29.4736 15.8051 30.37 16.2238 30.6745C16.6425 30.979 17.8237 31.1811 18.6427 30.7624C19.3016 30.3582 20.4907 30.1259 20.9606 30.1429C21.4292 30.16 22.3532 30.3451 23.2995 30.8504C24.0489 31.1089 24.7577 31.0013 25.4677 30.7126C26.1778 30.4225 27.2055 29.3226 28.4051 27.0927C28.8605 26.0558 29.0679 25.4954 29.0259 25.4101Z" fill="white"/>
</g>
<defs>
<clipPath id="clip0_18_440">
<rect width="21" height="21" fill="white" transform="translate(10 10)"/>
</clipPath>
</defs>
</svg>
