<svg width="18" height="14" viewBox="0 0 18 14" fill="none" xmlns="http://www.w3.org/2000/svg">
<path d="M11.811 7.28513C11.811 8.02043 11.5189 8.72561 10.999 9.24554C10.479 9.76547 9.77384 10.0576 9.03855 10.0576C8.30325 10.0576 7.59807 9.76547 7.07814 9.24554C6.55821 8.72561 6.26611 8.02043 6.26611 7.28513C6.26611 6.54984 6.55821 5.84466 7.07814 5.32472C7.59807 4.80479 8.30325 4.5127 9.03855 4.5127C9.77384 4.5127 10.479 4.80479 10.999 5.32472C11.5189 5.84466 11.811 6.54984 11.811 7.28513Z" fill="white"/>
<path d="M2.3847 2.29461C1.79646 2.29461 1.23232 2.52828 0.81637 2.94423C0.400424 3.36018 0.166748 3.92432 0.166748 4.51256L0.166748 11.1664C0.166748 11.7546 0.400424 12.3188 0.81637 12.7347C1.23232 13.1507 1.79646 13.3844 2.3847 13.3844H15.6924C16.2806 13.3844 16.8448 13.1507 17.2607 12.7347C17.6767 12.3188 17.9103 11.7546 17.9103 11.1664V4.51256C17.9103 3.92432 17.6767 3.36018 17.2607 2.94423C16.8448 2.52828 16.2806 2.29461 15.6924 2.29461H14.3927C13.8045 2.29448 13.2404 2.06072 12.8246 1.64475L11.9064 0.726519C11.4905 0.310544 10.9264 0.0767858 10.3383 0.0766602H7.73882C7.15064 0.0767858 6.58658 0.310544 6.17074 0.726519L5.2525 1.64475C4.83666 2.06072 4.2726 2.29448 3.68441 2.29461H2.3847ZM2.93918 4.51256C2.79212 4.51256 2.65109 4.45414 2.5471 4.35015C2.44312 4.24617 2.3847 4.10513 2.3847 3.95807C2.3847 3.81101 2.44312 3.66998 2.5471 3.56599C2.65109 3.462 2.79212 3.40358 2.93918 3.40358C3.08624 3.40358 3.22728 3.462 3.33127 3.56599C3.43525 3.66998 3.49367 3.81101 3.49367 3.95807C3.49367 4.10513 3.43525 4.24617 3.33127 4.35015C3.22728 4.45414 3.08624 4.51256 2.93918 4.51256ZM12.92 7.28499C12.92 8.31441 12.511 9.30166 11.7831 10.0296C11.0552 10.7575 10.068 11.1664 9.03854 11.1664C8.00913 11.1664 7.02188 10.7575 6.29397 10.0296C5.56607 9.30166 5.15713 8.31441 5.15713 7.28499C5.15713 6.25558 5.56607 5.26833 6.29397 4.54042C7.02188 3.81252 8.00913 3.40358 9.03854 3.40358C10.068 3.40358 11.0552 3.81252 11.7831 4.54042C12.511 5.26833 12.92 6.25558 12.92 7.28499Z" fill="white"/>
</svg>
