<svg width="20" height="20" viewBox="0 0 20 20" fill="none" xmlns="http://www.w3.org/2000/svg">
<path d="M2.51301 6.83777L2.60505 6.87686C2.62682 6.8256 2.64914 6.77458 2.672 6.72381L4.5875 8.44789V10.8735V10.9132L4.6148 10.9421L7.62652 14.1312L7.65611 14.1625H7.69922H9.11875V15.9349L7.35653 17.5797C7.19511 17.5233 7.03514 17.4617 6.87663 17.3948C4.91679 16.5648 3.36631 14.9912 2.56549 13.0192C1.76464 11.0472 1.77891 8.83807 2.60517 6.87659L2.51301 6.83777ZM2.51301 6.83777C2.53922 6.77604 2.56623 6.71465 2.59401 6.65362L2.51301 6.83777ZM10.0001 18.025H9.99999C9.68668 18.025 9.37369 18.0069 9.06259 17.9708L10.537 16.5947L10.5688 16.5651V16.5216V12.8125V12.7125H10.4688H8.28138L6.0375 10.3368V7.84664V7.8021L6.00439 7.77231L3.40161 5.42995C4.27008 4.17998 5.47459 3.20041 6.87667 2.60507C8.0992 2.08793 9.43101 1.88245 10.7526 2.00706C12.0384 2.12831 13.2754 2.55837 14.3585 3.25998L12.6451 5.46286L12.6099 5.50814L12.6312 5.5614L13.2118 7.01287L12.8867 7.33797L9.86817 6.73429L9.82432 6.72552L9.78856 6.75234L8.065 8.045L8.025 8.075V8.125V11.5625V11.6625H8.125H14.95L16.846 14.1905C16.5154 14.7295 16.1222 15.2276 15.6746 15.6745L15.6744 15.6746C14.9302 16.4211 14.0458 17.013 13.072 17.4164C12.0981 17.8197 11.0542 18.0266 10.0001 18.025ZM18.025 9.99985V10.0002C18.0267 10.9268 17.8669 11.8461 17.5533 12.717L15.705 10.2525L15.675 10.2125H15.625H9.475V8.8L10.1757 8.27448L13.3108 8.90153L13.3633 8.91203L13.4011 8.87419L14.8666 7.40876L14.9132 7.36213L14.8887 7.30091L14.2651 5.74186L15.4988 4.15547C15.558 4.21123 15.6166 4.26794 15.6745 4.32558C16.4209 5.06978 17.0129 5.95422 17.4163 6.92803C17.8197 7.90184 18.0266 8.9458 18.025 9.99985ZM10 0.525C4.76712 0.525 0.525 4.76712 0.525 10C0.525 15.2329 4.76712 19.475 10 19.475C15.2329 19.475 19.475 15.2329 19.475 10C19.475 4.76712 15.2329 0.525 10 0.525Z" fill="#828282" stroke="#828282" stroke-width="0.2"/>
</svg>
