<svg width="19" height="15" viewBox="0 0 19 15" fill="none" xmlns="http://www.w3.org/2000/svg">
<path d="M12.1896 9.02729L15.835 12.6777H3.22311L6.75367 9.02614L6.82323 8.95418L6.75123 8.88468L5.99123 8.15107L5.91932 8.08166L5.84987 8.15352L2.21122 11.9182V3.265L8.60096 9.6239L8.601 9.62394C8.81751 9.83916 9.11038 9.95996 9.41566 9.95996C9.72095 9.95996 10.0138 9.83916 10.2303 9.62394L10.2303 9.62392L16.789 3.10128V11.8555L13.0753 8.14175L13.0046 8.07104L12.9338 8.14175L12.1897 8.88592L12.119 8.95658L12.1896 9.02729ZM16.889 1.06663H2.11122C1.80475 1.06663 1.51083 1.18837 1.29412 1.40508C1.07741 1.62179 0.955664 1.91571 0.955664 2.22218V12.7777C0.955664 13.0842 1.07741 13.3781 1.29412 13.5948C1.51083 13.8115 1.80475 13.9333 2.11122 13.9333H16.889C17.1955 13.9333 17.4894 13.8115 17.7061 13.5948C17.9228 13.3781 18.0446 13.0842 18.0446 12.7777V2.22218C18.0446 1.91571 17.9228 1.62179 17.7061 1.40508C17.4894 1.18837 17.1955 1.06663 16.889 1.06663ZM9.41569 8.66251L3.04485 2.32218H15.7916L9.41569 8.66251Z" fill="#5330D1" stroke="#5330D1" stroke-width="0.2"/>
</svg>
