<svg width="20" height="14" viewBox="0 0 20 14" fill="none" xmlns="http://www.w3.org/2000/svg">
<path d="M17.7141 6.13496C18.1091 6.65163 18.1091 7.34913 17.7141 7.86496C16.4699 9.48913 13.4849 12.8333 9.99993 12.8333C6.51493 12.8333 3.52993 9.48913 2.28576 7.86496C2.09358 7.61757 1.98926 7.31322 1.98926 6.99996C1.98926 6.68669 2.09358 6.38235 2.28576 6.13496C3.52993 4.51079 6.51493 1.16663 9.99993 1.16663C13.4849 1.16663 16.4699 4.51079 17.7141 6.13496V6.13496Z" stroke="#828282" stroke-width="2" stroke-linecap="round" stroke-linejoin="round"/>
<path d="M10 9.5C11.3807 9.5 12.5 8.38071 12.5 7C12.5 5.61929 11.3807 4.5 10 4.5C8.61929 4.5 7.5 5.61929 7.5 7C7.5 8.38071 8.61929 9.5 10 9.5Z" stroke="#828282" stroke-width="2" stroke-linecap="round" stroke-linejoin="round"/>
</svg>
