<svg width="20" height="20" viewBox="0 0 20 20" fill="none" xmlns="http://www.w3.org/2000/svg">
<path d="M10 0.3125C4.47702 0.3125 0 4.64961 0 10C0 15.3504 4.47702 19.6875 10 19.6875C15.523 19.6875 20 15.3504 20 10C20 4.64961 15.523 0.3125 10 0.3125ZM16.4516 8.73047V9.00117C16.4516 9.23047 16.3177 9.44023 16.106 9.54258L15.4855 9.84336C15.3869 9.89114 15.2771 9.9128 15.1671 9.90615C15.0571 9.89949 14.9509 9.86476 14.8593 9.80547L14.125 9.33125C14.0458 9.28014 13.9556 9.24721 13.8613 9.23496C13.7669 9.2227 13.671 9.23146 13.5806 9.26055L13.4738 9.29492C13.0827 9.42109 12.923 9.87266 13.1516 10.2051L13.6855 10.9809C13.8012 11.1492 13.9964 11.2504 14.2052 11.2504H14.5363C14.8815 11.2504 15.1613 11.5215 15.1613 11.8559V12.2988C15.1613 12.4297 15.1173 12.5574 15.0363 12.6621L14.2806 13.6379C14.2234 13.7121 14.1843 13.798 14.1665 13.8891L13.9931 14.7809C13.9681 14.9094 13.9008 15.0266 13.8012 15.1152C13.4191 15.4542 13.0806 15.8367 12.7931 16.2543L12.2677 17.018C12.1656 17.1665 12.0271 17.2882 11.8647 17.3724C11.7023 17.4567 11.5209 17.5008 11.3367 17.5008C10.9129 17.5008 10.5254 17.2687 10.3359 16.9016C10.115 16.4735 9.99998 16.0016 10 15.523V14.3555C10 14.0211 9.72016 13.75 9.375 13.75H8.33145C7.74718 13.75 7.1871 13.525 6.77379 13.125C6.36079 12.7247 6.12874 12.182 6.12863 11.616V11.0668C6.12863 10.3953 6.45524 9.76289 7.00968 9.35977L8.12177 8.55156C8.50312 8.27454 8.96689 8.12473 9.44355 8.12461H9.47943C9.82137 8.12461 10.1589 8.20156 10.4645 8.35L11.0581 8.6375C11.2065 8.70937 11.3778 8.72109 11.5351 8.67031L13.4427 8.0543C13.698 7.97188 13.8702 7.74063 13.8702 7.48008C13.8702 7.1457 13.5903 6.87461 13.2452 6.87461H12.8383C12.6726 6.87461 12.5137 6.81094 12.3964 6.69727L12.1173 6.42695C12.0593 6.37072 11.9904 6.32611 11.9146 6.29568C11.8388 6.26525 11.7575 6.2496 11.6754 6.24961H8.04435C7.69919 6.24961 7.41935 5.97852 7.41935 5.64414V5.47227C7.41935 5.19453 7.61452 4.95234 7.89274 4.88477L8.4754 4.74375C8.62621 4.70703 8.75766 4.61758 8.84395 4.49219L9.16976 4.01914C9.28548 3.85078 9.48065 3.74961 9.68952 3.74961H10.6657C11.0109 3.74961 11.2907 3.47852 11.2907 3.14414V2.29648C14.4851 2.79805 17.0508 5.11797 17.8198 8.125H17.0766C16.7315 8.125 16.4516 8.39609 16.4516 8.73047Z" fill="#828282"/>
</svg>
