<svg width="41" height="41" viewBox="0 0 41 41" fill="none" xmlns="http://www.w3.org/2000/svg">
<circle cx="20.5" cy="20.5" r="20.5" fill="#FB4B56"/>
<path d="M30.3692 19.2328H21.1956V23.0033H26.4362C26.2102 24.2221 25.5247 25.2529 24.4913 25.9436C23.6178 26.5275 22.5032 26.8729 21.193 26.8729C18.6565 26.8729 16.511 25.159 15.7442 22.8561C15.5512 22.2721 15.4395 21.6475 15.4395 21.0051C15.4395 20.3627 15.5512 19.7381 15.7442 19.1541C16.5135 16.8537 18.659 15.1398 21.1956 15.1398C22.625 15.1398 23.9073 15.6324 24.9178 16.5973L27.7108 13.8018C26.0223 12.2275 23.8209 11.2627 21.1956 11.2627C17.3895 11.2627 14.0963 13.4463 12.4942 16.6303C11.834 17.9455 11.4583 19.4334 11.4583 21.0076C11.4583 22.5818 11.834 24.0672 12.4942 25.3824C14.0963 28.5664 17.3895 30.75 21.1956 30.75C23.826 30.75 26.0299 29.8766 27.6397 28.3887C29.4805 26.6926 30.5444 24.1941 30.5444 21.226C30.5444 20.5354 30.4834 19.8727 30.3692 19.2328Z" fill="white"/>
</svg>
