<svg width="16" height="20" viewBox="0 0 16 20" fill="none" xmlns="http://www.w3.org/2000/svg">
<path d="M8.00008 0.833374C5.47283 0.833374 3.41675 2.88946 3.41675 5.41671V7.25004H2.50008C1.489 7.25004 0.666748 8.07229 0.666748 9.08337V17.3334C0.666748 18.3445 1.489 19.1667 2.50008 19.1667H13.5001C14.5112 19.1667 15.3334 18.3445 15.3334 17.3334V9.08337C15.3334 8.07229 14.5112 7.25004 13.5001 7.25004H12.5834V5.41671C12.5834 2.88946 10.5273 0.833374 8.00008 0.833374ZM5.25008 5.41671C5.25008 3.90054 6.48391 2.66671 8.00008 2.66671C9.51625 2.66671 10.7501 3.90054 10.7501 5.41671V7.25004H5.25008V5.41671ZM13.5019 17.3334H8.91675V15.2452C9.46216 14.9271 9.83342 14.3423 9.83342 13.6667C9.83342 12.6556 9.01116 11.8334 8.00008 11.8334C6.989 11.8334 6.16675 12.6556 6.16675 13.6667C6.16675 14.3414 6.538 14.9271 7.08342 15.2452V17.3334H2.50008V9.08337H13.5001L13.5019 17.3334Z" fill="#828282"/>
</svg>
