<svg width="12" height="15" viewBox="0 0 12 15" fill="none" xmlns="http://www.w3.org/2000/svg">
<path d="M10.1796 1.16756C9.52642 0.378723 8.34573 0.0405273 6.83528 0.0405273H2.45153C2.30208 0.0405332 2.15754 0.0970277 2.04389 0.199854C1.93024 0.30268 1.85494 0.445092 1.83151 0.601488L0.00620156 12.8681C-0.0300797 13.1099 0.146686 13.329 0.378061 13.329H3.08444L3.76412 8.76089L3.74303 8.90394C3.79145 8.58104 4.05208 8.34288 4.3607 8.34288H5.64676C8.17323 8.34288 10.1515 7.25553 10.7294 4.11005C10.7465 4.01702 10.7614 3.92647 10.7742 3.83801C10.7013 3.79708 10.7013 3.79708 10.7742 3.83801C10.9463 2.67541 10.7731 1.88404 10.1796 1.16756Z" fill="#27346A"/>
<path d="M4.79969 3.4192C4.87367 3.38187 4.9546 3.36253 5.03655 3.36258H8.47333C8.8803 3.36258 9.25989 3.39064 9.60676 3.4498C9.70383 3.4662 9.80039 3.48578 9.89631 3.50851C10.0323 3.5403 10.1666 3.5792 10.299 3.62508C10.4695 3.68543 10.6283 3.75571 10.7743 3.83801C10.9463 2.67496 10.7731 1.88404 10.1796 1.16756C9.52605 0.378723 8.34573 0.0405273 6.83528 0.0405273H2.45115C2.14248 0.0405273 1.87989 0.27864 1.83151 0.601488L0.00620182 12.8676C-0.0300794 13.1099 0.146686 13.3286 0.377686 13.3286H3.08444L4.49458 3.85331C4.50844 3.76017 4.54346 3.672 4.5966 3.59638C4.64975 3.52076 4.71945 3.45996 4.79969 3.4192Z" fill="#27346A"/>
<path d="M10.7295 4.11017C10.1517 7.2552 8.17345 8.343 5.64693 8.343H4.36049C4.05187 8.343 3.7912 8.58116 3.74324 8.90406L2.89767 14.5839C2.86607 14.7956 3.02057 14.9875 3.2227 14.9875H5.5041C5.63479 14.9874 5.76118 14.938 5.86053 14.848C5.95989 14.7581 6.0257 14.6335 6.04612 14.4967L6.06834 14.3735L6.49832 11.486L6.52603 11.3264C6.54645 11.1896 6.61225 11.0651 6.71159 10.9751C6.81094 10.8852 6.93732 10.8357 7.06799 10.8357H7.40943C9.61945 10.8357 11.3499 9.88433 11.8556 7.13287C12.0667 5.98304 11.9575 5.02304 11.3991 4.34873C11.2297 4.14449 11.0194 3.97582 10.7744 3.83813C10.7611 3.92704 10.7467 4.01714 10.7295 4.11017Z" fill="#2790C3"/>
<path d="M10.1697 3.58253C10.0796 3.55465 9.98864 3.52997 9.89698 3.50853C9.80101 3.48617 9.70445 3.46672 9.60743 3.45022C9.26018 3.39066 8.88087 3.36255 8.47353 3.36255H5.03717C4.95516 3.36235 4.87417 3.38187 4.80031 3.41962C4.71998 3.46025 4.65021 3.52102 4.59703 3.59666C4.54386 3.6723 4.50889 3.76054 4.49515 3.85373L3.76475 8.76091L3.74365 8.90396C3.7917 8.58106 4.05232 8.3429 4.361 8.3429H5.64743C8.1739 8.3429 10.1521 7.25555 10.73 4.11007C10.7472 4.01704 10.7616 3.92689 10.7749 3.83803C10.6286 3.75618 10.4702 3.68545 10.2996 3.6255C10.2565 3.61038 10.2133 3.59605 10.1697 3.58253" fill="#1F264F"/>
</svg>
