<svg width="19" height="19" viewBox="0 0 19 19" fill="none" xmlns="http://www.w3.org/2000/svg">
<path d="M5.2665 14.1005L5.26564 14.0997C2.873 11.7465 1.21357 8.75027 0.488133 5.47364L0.487886 5.47253L0.487893 5.47253C0.399329 5.04972 0.421066 4.61123 0.551013 4.19925C0.680893 3.78748 0.914503 3.41605 1.22939 3.12064L3.34003 1.08914L3.34067 1.08853L3.34067 1.08854C3.45871 0.976902 3.59897 0.891415 3.75229 0.837654C3.90561 0.783894 4.06854 0.763068 4.23045 0.776536L4.23254 0.77671L4.23253 0.776731C4.40042 0.794246 4.56242 0.848326 4.70716 0.935169C4.8519 1.02201 4.97585 1.13951 5.07031 1.2794L7.70915 5.1796L7.71003 5.1809L7.71002 5.18091C7.8207 5.35017 7.87412 5.55048 7.86244 5.75238C7.85075 5.95427 7.77456 6.14708 7.64509 6.30244L7.64497 6.30258L6.36066 7.83761C6.88141 8.97095 7.61179 9.99581 8.51349 10.8581L8.51501 10.8595L8.515 10.8596C9.41201 11.7542 10.4697 12.4714 11.6325 12.9736L13.2272 11.7071L13.2274 11.7069C13.3812 11.5854 13.5683 11.5135 13.7639 11.5009C13.9595 11.4883 14.1543 11.5355 14.3225 11.6363L14.3254 11.638L14.3253 11.638L18.3086 14.2126C18.4576 14.3019 18.5846 14.4237 18.6801 14.5689C18.7759 14.7145 18.8375 14.88 18.8603 15.0528C18.8831 15.2257 18.8664 15.4015 18.8117 15.567C18.7569 15.7325 18.6653 15.8835 18.5439 16.0086L18.5425 16.0101L18.5425 16.01L16.4844 18.0471C16.2412 18.289 15.9526 18.4805 15.6351 18.6105C15.3178 18.7405 14.9779 18.8064 14.6349 18.8045C14.6348 18.8045 14.6347 18.8045 14.6347 18.8045L14.6352 18.7045C14.4577 18.704 14.2808 18.6846 14.1074 18.6465L5.2665 14.1005ZM5.2665 14.1005C7.71067 16.448 10.768 18.0577 14.0866 18.7443L5.2665 14.1005ZM2.09595 4.02518L4.12176 2.07534L6.57751 5.67811L5.20293 7.32251C5.12994 7.4002 5.07793 7.49521 5.05181 7.59859C5.02542 7.70304 5.02636 7.81252 5.05453 7.91651L5.05399 7.91665L5.05781 7.9265C5.62277 9.38389 6.50938 10.695 7.65154 11.762C8.75592 12.8834 10.0943 13.747 11.5712 14.2911L11.5712 14.2912L11.5758 14.2927C11.6735 14.3234 11.7772 14.3297 11.8779 14.3111C11.9785 14.2925 12.0731 14.2495 12.1534 14.186L12.1536 14.1858L13.8602 12.8267L17.5428 15.206L15.5729 17.1557L15.5728 17.1558C15.4141 17.3133 15.2188 17.429 15.0044 17.4924C14.79 17.5559 14.5632 17.5652 14.3443 17.5194L14.3441 17.5194C11.2571 16.8817 8.41295 15.3851 6.13912 13.202C3.92684 11.0161 2.39491 8.23622 1.72845 5.19837L1.63077 5.2198L1.72847 5.19848C1.68255 4.98811 1.69217 4.7694 1.7564 4.56388C1.82062 4.35836 1.93724 4.17309 2.09477 4.0263L2.09478 4.02631L2.09595 4.02518Z" fill="#828282" stroke="#828282" stroke-width="0.2"/>
</svg>
