<svg width="19" height="23" viewBox="0 0 19 23" fill="none" xmlns="http://www.w3.org/2000/svg">
<path d="M9.56092 0.821424L9.5 0.794348L9.43908 0.821424L0.814079 4.65476L0.725 4.69435V4.79183V10.5418C0.725 15.9235 4.44639 20.9622 9.46442 22.1875L9.5 22.1962L9.53558 22.1875C14.5536 20.9622 18.275 15.9235 18.275 10.5418V4.79183V4.69435L18.1859 4.65476L9.56092 0.821424ZM8.54167 6.5585H8.39167V6.7085V8.62516V8.77516H8.54167H10.4583H10.6083V8.62516V6.7085V6.5585H10.4583H8.54167ZM8.54167 10.3918H8.39167V10.5418V16.2918V16.4418H8.54167H10.4583H10.6083V16.2918V10.5418V10.3918H10.4583H8.54167ZM2.94167 6.13516L9.5 3.22138L16.0583 6.13516V10.5418C16.0583 14.796 13.2627 18.7166 9.5 19.901C5.73733 18.7166 2.94167 14.796 2.94167 10.5418V6.13516Z" fill="#1D1D1D" stroke="#1D1D1D" stroke-width="0.3"/>
</svg>
