<svg width="24" height="24" viewBox="0 0 24 24" fill="none" xmlns="http://www.w3.org/2000/svg">
<path d="M12 0.856934C5.84584 0.856934 0.857178 5.84559 0.857178 11.9998C0.857178 18.154 5.84584 23.1426 12 23.1426C18.1542 23.1426 23.1429 18.154 23.1429 11.9998C23.1429 5.84559 18.1542 0.856934 12 0.856934ZM12 21.4712C10.7562 21.4711 9.52447 21.2261 8.37531 20.75C7.22614 20.2739 6.182 19.5762 5.30249 18.6965C4.42299 17.8169 3.72535 16.7727 3.2494 15.6235C2.77346 14.4743 2.52853 13.2426 2.52861 11.9987C2.52868 10.7548 2.77375 9.52311 3.24983 8.37395C3.72591 7.22478 4.42367 6.18064 5.30328 5.30113C6.18289 4.42163 7.22711 3.72399 8.37633 3.24805C9.52556 2.7721 10.7573 2.52717 12.0011 2.52725C14.5133 2.5274 16.9225 3.52548 18.6987 5.30192C20.4749 7.07837 21.4727 9.48766 21.4726 11.9998C21.4724 14.5119 20.4743 16.9211 18.6979 18.6973C16.9215 20.4736 14.5122 21.4714 12 21.4712ZM12 12.5569C8.61483 12.5569 5.87146 14.4824 5.87146 16.4569C5.87146 18.4314 8.61483 20.3569 12 20.3569C15.3852 20.3569 18.1286 18.4314 18.1286 16.4569C18.1286 14.4824 15.3852 12.5569 12 12.5569ZM12 11.9998C12.8866 11.9998 13.7369 11.6476 14.3638 11.0207C14.9907 10.3938 15.3429 9.54351 15.3429 8.65693C15.3429 7.77035 14.9907 6.92008 14.3638 6.29318C13.7369 5.66627 12.8866 5.31408 12 5.31408C11.1135 5.31408 10.2632 5.66627 9.63628 6.29318C9.00937 6.92008 8.65718 7.77035 8.65718 8.65693C8.65718 9.54351 9.00937 10.3938 9.63628 11.0207C10.2632 11.6476 11.1135 11.9998 12 11.9998Z" fill="#1D1D1D"/>
</svg>
