<svg width="82" height="82" viewBox="0 0 82 82" fill="none" xmlns="http://www.w3.org/2000/svg">
<circle cx="41" cy="41" r="41" fill="#5330D1"/>
<g clip-path="url(#clip0_36_367)">
<path d="M57.9102 25.715C58.0011 25.4878 58.0233 25.239 57.9742 24.9993C57.925 24.7596 57.8066 24.5396 57.6336 24.3666C57.4605 24.1936 57.2406 24.0752 57.0009 24.026C56.7612 23.9768 56.5123 23.9991 56.2852 24.09L19.9177 38.6375H19.9152L18.7852 39.0875C18.5711 39.1729 18.3849 39.3157 18.247 39.5003C18.109 39.6849 18.0248 39.904 18.0036 40.1335C17.9824 40.3629 18.025 40.5938 18.1268 40.8005C18.2285 41.0072 18.3854 41.1818 18.5802 41.305L19.6052 41.955L19.6077 41.96L32.0952 49.905L40.0402 62.3925L40.0452 62.3975L40.6952 63.4225C40.8187 63.6165 40.9934 63.7726 41.2 63.8737C41.4066 63.9749 41.6371 64.017 41.8661 63.9955C42.0951 63.9741 42.3137 63.8899 42.4979 63.7522C42.6821 63.6144 42.8248 63.4286 42.9102 63.215L57.9102 25.715ZM53.3277 30.44L34.5927 49.175L34.0552 48.33C33.9567 48.1749 33.8252 48.0435 33.6702 47.945L32.8252 47.4075L51.5602 28.6725L54.5052 27.495L53.3302 30.44H53.3277Z" fill="white"/>
</g>
<defs>
<clipPath id="clip0_36_367">
<rect width="40" height="40" fill="white" transform="translate(18 24)"/>
</clipPath>
</defs>
</svg>
