<svg width="40" height="40" viewBox="0 0 40 40" fill="none" xmlns="http://www.w3.org/2000/svg">
<path d="M39.9102 1.715C40.0011 1.48784 40.0234 1.23899 39.9742 0.999302C39.925 0.759611 39.8066 0.539621 39.6336 0.366605C39.4605 0.193589 39.2406 0.0751553 39.0009 0.0259867C38.7612 -0.023182 38.5123 -0.000923203 38.2852 0.0900035L1.91767 14.6375H1.91517L0.785165 15.0875C0.571141 15.1729 0.384879 15.3157 0.246955 15.5003C0.10903 15.6849 0.0248104 15.904 0.00359906 16.1335C-0.0176123 16.3629 0.02501 16.5938 0.126758 16.8005C0.228506 17.0072 0.385419 17.1818 0.580165 17.305L1.60517 17.955L1.60767 17.96L14.0952 25.905L22.0402 38.3925L22.0452 38.3975L22.6952 39.4225C22.8187 39.6165 22.9934 39.7726 23.2 39.8737C23.4066 39.9749 23.6371 40.017 23.8661 39.9955C24.0951 39.9741 24.3137 39.8899 24.4979 39.7522C24.6821 39.6144 24.8248 39.4286 24.9102 39.215L39.9102 1.715V1.715ZM35.3277 6.44L16.5927 25.175L16.0552 24.33C15.9567 24.1749 15.8252 24.0435 15.6702 23.945L14.8252 23.4075L33.5602 4.6725L36.5052 3.495L35.3302 6.44H35.3277Z" fill="white"/>
</svg>
