<svg width="20" height="22" viewBox="0 0 20 22" fill="none" xmlns="http://www.w3.org/2000/svg">
<path d="M6.16399 3.75179L6.16399 3.75179C6.42779 3.6332 6.72768 3.62326 6.99874 3.72415C7.2698 3.82503 7.49022 4.02862 7.61229 4.29082C7.73435 4.55303 7.74823 4.85276 7.65093 5.12513C7.55363 5.3975 7.35297 5.62058 7.09239 5.74609L7.09109 5.74672L7.09109 5.74671C5.66562 6.40815 4.50877 7.53654 3.81204 8.94509C3.11531 10.3536 2.92048 11.9579 3.2598 13.4923C3.59913 15.0267 4.45226 16.3992 5.67797 17.3826C6.90368 18.366 8.42846 18.9013 9.99992 18.9H10C11.5694 18.9001 13.092 18.365 14.3163 17.383C15.5405 16.4011 16.3934 15.031 16.734 13.499C17.0746 11.967 16.8825 10.3646 16.1896 8.95641C15.4967 7.54824 14.3443 6.41846 12.9226 5.75358L12.921 5.75284L12.921 5.75282C12.6619 5.62603 12.463 5.40253 12.3671 5.13047C12.2712 4.8584 12.286 4.55955 12.4083 4.2983C12.5307 4.03705 12.7507 3.83431 13.0211 3.73376C13.2915 3.6332 13.5905 3.64289 13.8538 3.76072L13.8553 3.76139L13.8553 3.76141C15.4229 4.49404 16.749 5.65859 17.6779 7.1184C18.6069 8.5782 19.1002 10.2727 19.1 12.003C19.1 17.0273 15.0252 21.1 10 21.1C4.97481 21.1 0.900011 17.0273 0.9 12.003L6.16399 3.75179ZM6.16399 3.75179L6.16286 3.75231M6.16399 3.75179L6.16286 3.75231M6.16286 3.75231C4.59049 4.48297 3.2597 5.6478 2.32728 7.10958C1.39487 8.57135 0.899658 10.2692 0.9 12.003L6.16286 3.75231ZM11.0928 1.87703L11.093 1.87702L11.0923 1.8713C11.0608 1.60372 10.9322 1.35702 10.7308 1.17799C10.5295 0.998952 10.2694 0.900036 10 0.9C9.70826 0.9 9.42847 1.01589 9.22218 1.22218C9.01589 1.42847 8.9 1.70826 8.9 2V9H8.89982L8.90018 9.00597L8.90718 9.12297L8.90701 9.12298L8.9077 9.12881C8.94081 9.40722 9.07899 9.66247 9.29398 9.84242C9.50898 10.0224 9.78458 10.1134 10.0645 10.097C10.3444 10.0806 10.6074 9.95789 10.7999 9.75402C10.9923 9.55015 11.0997 9.28048 11.1 9.00011V9V2H11.1002L11.0998 1.99403L11.0928 1.87703Z" fill="#EB5252" stroke="#EB5252" stroke-width="0.2"/>
</svg>
