<svg width="21" height="21" viewBox="0 0 21 21" fill="none" xmlns="http://www.w3.org/2000/svg">
<path d="M10.5001 3.3133C11.9216 3.3133 13.3113 3.73484 14.4932 4.52461C15.6752 5.31439 16.5965 6.43692 17.1405 7.75026C17.6845 9.06361 17.8268 10.5088 17.5495 11.903C17.2721 13.2972 16.5876 14.5779 15.5824 15.5831C14.5772 16.5883 13.2965 17.2729 11.9023 17.5502C10.508 17.8275 9.06288 17.6852 7.74954 17.1412C6.4362 16.5972 5.31366 15.6759 4.52389 14.494C3.73412 13.312 3.31258 11.9223 3.31258 10.5008C3.31258 10.1831 3.18637 9.8784 2.96172 9.65374C2.73707 9.42909 2.43237 9.30288 2.11466 9.30288C1.79696 9.30288 1.49226 9.42909 1.26761 9.65374C1.04296 9.8784 0.916748 10.1831 0.916748 10.5008C0.916964 12.6511 1.64035 14.7388 2.97058 16.4283C4.3008 18.1178 6.16057 19.3108 8.2508 19.8155C10.341 20.3202 12.5403 20.1072 14.4948 19.2109C16.4494 18.3145 18.0457 16.7869 19.0271 14.8736C20.0085 12.9603 20.3179 10.7725 19.9056 8.66214C19.4932 6.55174 18.3831 4.64135 16.7537 3.23816C15.1244 1.83497 13.0704 1.02053 10.9222 0.92581C8.77399 0.831093 6.65635 1.4616 4.9098 2.71594V2.11539C4.9098 1.79768 4.78359 1.49299 4.55894 1.26833C4.33429 1.04368 4.02959 0.917471 3.71188 0.917471C3.39418 0.917471 3.08948 1.04368 2.86483 1.26833C2.64018 1.49299 2.51397 1.79768 2.51397 2.11539V6.10844C2.51397 6.76969 3.05064 7.30636 3.71188 7.30636H6.10772C6.42542 7.30636 6.73012 7.18015 6.95477 6.95549C7.17942 6.73084 7.30563 6.42615 7.30563 6.10844C7.30563 5.79073 7.17942 5.48604 6.95477 5.26139C6.73012 5.03673 6.42542 4.91052 6.10772 4.91052H5.98154C7.25935 3.87456 8.85508 3.3105 10.5001 3.3133ZM11.2987 6.90705C11.2987 6.58934 11.1725 6.28465 10.9478 6.06C10.7232 5.83534 10.4185 5.70913 10.1008 5.70913C9.78306 5.70913 9.47837 5.83534 9.25371 6.06C9.02906 6.28465 8.90285 6.58934 8.90285 6.90705V10.9001C8.90285 11.5614 9.43952 12.098 10.1008 12.098H12.4966C12.8143 12.098 13.119 11.9718 13.3437 11.7472C13.5683 11.5225 13.6945 11.2178 13.6945 10.9001C13.6945 10.5824 13.5683 10.2777 13.3437 10.053C13.119 9.8284 12.8143 9.70219 12.4966 9.70219H11.2987V6.90705Z" fill="#1D1D1D"/>
</svg>
